{"title":"J. Balvin - Ginza (2015.Latin)","uid":12497246,"size":85804527,"categoryP":"video","categoryS":"music_videos","magnet":"?xt=urn:btih:5e4a229dcb7509c5825968bc3588f3f4eb5fdeac&amp;dn=J.+Balvin+-+Ginza+%282015.Latin%29&amp;tr=udp%3A%2F%2Ftracker.leechers-paradise.org%3A6969&amp;tr=udp%3A%2F%2Fzer0day.ch%3A1337&amp;tr=udp%3A%2F%2Fopen.demonii.com%3A1337&amp;tr=udp%3A%2F%2Ftracker.coppersurfer.tk%3A6969&amp;tr=udp%3A%2F%2Fexodus.desync.com%3A6969","seeders":23,"leechers":1,"uploader":"MeRaDil","files":1,"time":1443299339,"description":"J. BALVIN - GINZA\r\n\r\n \nhttp://gifyu.com/images/ginza.png\r\n \nhttps://thepiratebay.vg/user/MeRaDil\r\n\r\n\r\nMEDIA INFO\r\nGeneral\r\nJ. Balvin - Ginza\r\nFormat                                   : MPEG-4\r\nFormat profile                           : Base Media\r\nCodec ID                                 : isom\r\nFile size                                : 81.8 MiB\r\nDuration                                 : 3mn 48s\r\nOverall bit rate                         : 2 998 Kbps\r\nMusicVid name                            : Ginza\r\nPerformer                                : J.Balvin\r\nGenre                                    : Reggaeton\r\nContentType                              : Music Video\r\nRecorded date                            : 2015\r\nRating                                   : ***\r\nMake                                     : MeRaDil\r\nRelease time                             : Columbia - july 21 - 2015\r\n\r\nVideo\r\nID                                       : 1\r\nFormat                                   : AVC\r\nFormat/Info                              : Advanced Video Codec\r\nFormat profile                           :   \r\nFormat settings, CABAC                   : Yes\r\nFormat settings, ReFrames                : 3 frames\r\nCodec ID                                 : avc1\r\nCodec ID/Info                            : Advanced Video Coding\r\nDuration                                 : 3mn 48s\r\nBit rate                                 : 2 730 Kbps\r\nWidth                                    : 1 920 pixels\r\nHeight                                   : 1 080 pixels\r\nDisplay aspect ratio                     : 16:9\r\nFrame rate mode                          : Constant\r\nFrame rate                               : 24.000 fps\r\nColor space                              : YUV\r\nChroma subsampling                       : 4:2:0\r\nBit depth                                : 8 bits\r\nScan type                                : Progressive\r\nBits/(Pixel*Frame)                       : 0.055\r\nStream size                              : 74.5 MiB (91%)\r\n\r\nAudio\r\nID                                       : 2\r\nFormat                                   : AAC\r\nFormat/Info                              : Advanced Audio Codec\r\nFormat profile                           : LC\r\nCodec ID                                 : 40\r\nDuration                                 : 3mn 48s\r\nBit rate mode                            : Constant\r\nBit rate                                 : 256 Kbps\r\nChannel(s)                               : 2 channels\r\nChannel positions                        : Front: L R\r\nSampling rate                            : 44.1 KHz\r\nCompression mode                         : Lossy\r\nStream size                              : 6.99 MiB (9%)\r\n\r\nJ.Balvin * Latin/Reggaeton * Promo","torrent":{"xt":"urn:btih:5e4a229dcb7509c5825968bc3588f3f4eb5fdeac","amp;dn":"J.+Balvin+-+Ginza+%282015.Latin%29","amp;tr":["udp%3A%2F%2Ftracker.leechers-paradise.org%3A6969","udp%3A%2F%2Fzer0day.ch%3A1337","udp%3A%2F%2Fopen.demonii.com%3A1337","udp%3A%2F%2Ftracker.coppersurfer.tk%3A6969","udp%3A%2F%2Fexodus.desync.com%3A6969"],"infoHash":"5e4a229dcb7509c5825968bc3588f3f4eb5fdeac","infoHashBuffer":{"type":"Buffer","data":[94,74,34,157,203,117,9,197,130,89,104,188,53,136,243,244,235,95,222,172]},"announce":[],"urlList":[]}}